# xmcd
#
# Track frame offsets: 
#        150
#        15108
#        29784
#        45915
#        65011
#        81350
#        96563
#        106213
#        130225
#        143752
#
# Disc length: 2170 seconds
#
# Revision: 2
# Processed by: cddbd v1.5.2PL0 Copyright (c) Steve Scherf et al.
# Submitted via: ExactAudioCopyFreeDBPlugin 1.0
#
DISCID=8208780a
DTITLE=ゴダイゴ - デッド･エンド
DYEAR=1977
DGENRE=ロック
TTITLE0=時の落し子
TTITLE1=イン･ザ･シティ
TTITLE2=サムの息子
TTITLE3=デッド･エンド～ラヴ･フラワーズ･プロフェシー
TTITLE4=ラスト･アワー
TTITLE5=パニック～イメージ
TTITLE6=アンダー･アンダーグラウンド
TTITLE7=孤独な面影
TTITLE8=血塗られた街
TTITLE9=御国
EXTD=Year: 2008
EXTT0=
EXTT1=
EXTT2=
EXTT3=
EXTT4=
EXTT5=
EXTT6=
EXTT7=
EXTT8=
EXTT9=
PLAYORDER=
